<mxfile host="app.diagrams.net" modified="2022-10-24T14:56:30.165Z" agent="5.0 (Windows NT 10.0; Win64; x64) AppleWebKit/537.36 (KHTML, like Gecko) Chrome/106.0.0.0 Safari/537.36" etag="KVIRnG_uYN9aea1qRbgA" version="20.4.0" type="github">
  <diagram id="36_fxG8ySibFkuu9BOoL" name="第 1 页">
    <mxGraphModel dx="1550" dy="779" grid="1" gridSize="10" guides="1" tooltips="1" connect="1" arrows="1" fold="1" page="1" pageScale="1" pageWidth="827" pageHeight="1169" math="0" shadow="0">
      <root>
        <mxCell id="0" />
        <mxCell id="1" parent="0" />
        <mxCell id="vMIxTg4AMXhMY5ZGAqC1-1" value="" style="rounded=0;whiteSpace=wrap;html=1;fillColor=#dae8fc;strokeColor=#6c8ebf;" vertex="1" parent="1">
          <mxGeometry x="210" y="290" width="340" height="250" as="geometry" />
        </mxCell>
        <mxCell id="vMIxTg4AMXhMY5ZGAqC1-2" value="执行上下文" style="text;html=1;align=center;verticalAlign=middle;resizable=0;points=[];autosize=1;strokeColor=none;fillColor=none;" vertex="1" parent="1">
          <mxGeometry x="215" y="300" width="80" height="30" as="geometry" />
        </mxCell>
        <mxCell id="vMIxTg4AMXhMY5ZGAqC1-4" value="js引擎执行代码" style="rounded=0;whiteSpace=wrap;html=1;" vertex="1" parent="1">
          <mxGeometry x="280" y="370" width="210" height="90" as="geometry" />
        </mxCell>
      </root>
    </mxGraphModel>
  </diagram>
</mxfile>
